<mxfile host="app.diagrams.net" modified="2023-11-13T12:06:16.440Z" agent="Mozilla/5.0 (Windows NT 10.0; Win64; x64) AppleWebKit/537.36 (KHTML, like Gecko) Chrome/119.0.0.0 Safari/537.36" etag="261jLfmPKOV4v74Z-8Yt" version="22.1.0" type="device">
  <diagram name="Страница — 1" id="PR_YhWmMzDaSOc2EWo4r">
    <mxGraphModel dx="1313" dy="788" grid="1" gridSize="10" guides="1" tooltips="1" connect="1" arrows="1" fold="1" page="1" pageScale="1" pageWidth="827" pageHeight="1169" math="0" shadow="0">
      <root>
        <mxCell id="0" />
        <mxCell id="1" parent="0" />
        <mxCell id="aftLZkoXdmzMpvK5F9YH-1" value="" style="rounded=0;whiteSpace=wrap;html=1;fillColor=none;movable=1;resizable=1;rotatable=1;deletable=1;editable=1;locked=0;connectable=1;" parent="1" vertex="1">
          <mxGeometry x="956" y="160" width="520" height="720" as="geometry" />
        </mxCell>
        <mxCell id="aftLZkoXdmzMpvK5F9YH-59" style="rounded=0;orthogonalLoop=1;jettySize=auto;html=1;endArrow=none;endFill=0;" parent="1" source="aftLZkoXdmzMpvK5F9YH-2" target="aftLZkoXdmzMpvK5F9YH-60" edge="1">
          <mxGeometry relative="1" as="geometry">
            <mxPoint x="1098.6765375590967" y="305.41169462762184" as="targetPoint" />
          </mxGeometry>
        </mxCell>
        <mxCell id="aftLZkoXdmzMpvK5F9YH-2" value="Пользователь" style="shape=umlActor;verticalLabelPosition=top;verticalAlign=bottom;html=1;outlineConnect=0;movable=1;resizable=1;rotatable=1;deletable=1;editable=1;locked=0;connectable=1;labelPosition=center;align=center;" parent="1" vertex="1">
          <mxGeometry x="890" y="300" width="30" height="60" as="geometry" />
        </mxCell>
        <mxCell id="aftLZkoXdmzMpvK5F9YH-5" style="rounded=0;orthogonalLoop=1;jettySize=auto;html=1;endArrow=none;endFill=0;" parent="1" source="aftLZkoXdmzMpvK5F9YH-6" target="aftLZkoXdmzMpvK5F9YH-17" edge="1">
          <mxGeometry relative="1" as="geometry">
            <mxPoint x="1040" y="390" as="targetPoint" />
          </mxGeometry>
        </mxCell>
        <mxCell id="aftLZkoXdmzMpvK5F9YH-6" value="Модератор" style="shape=umlActor;verticalLabelPosition=bottom;verticalAlign=top;html=1;outlineConnect=0;labelPosition=center;align=center;movable=1;resizable=1;rotatable=1;deletable=1;editable=1;locked=0;connectable=1;" parent="1" vertex="1">
          <mxGeometry x="827" y="592" width="30" height="60" as="geometry" />
        </mxCell>
        <mxCell id="aftLZkoXdmzMpvK5F9YH-8" value="Обмен сообщениями" style="text;html=1;align=center;verticalAlign=middle;resizable=1;points=[];autosize=1;strokeColor=none;fillColor=none;movable=1;rotatable=1;deletable=1;editable=1;locked=0;connectable=1;" parent="1" vertex="1">
          <mxGeometry x="956" y="160" width="140" height="30" as="geometry" />
        </mxCell>
        <mxCell id="aftLZkoXdmzMpvK5F9YH-10" style="rounded=0;orthogonalLoop=1;jettySize=auto;html=1;endArrow=block;endFill=0;movable=1;resizable=1;rotatable=1;deletable=1;editable=1;locked=0;connectable=1;" parent="1" source="aftLZkoXdmzMpvK5F9YH-6" target="aftLZkoXdmzMpvK5F9YH-2" edge="1">
          <mxGeometry relative="1" as="geometry" />
        </mxCell>
        <mxCell id="aftLZkoXdmzMpvK5F9YH-17" value="&lt;font style=&quot;font-size: 8px;&quot;&gt;Регистрация&lt;/font&gt;" style="ellipse;whiteSpace=wrap;html=1;movable=1;resizable=1;rotatable=1;deletable=1;editable=1;locked=0;connectable=1;" parent="1" vertex="1">
          <mxGeometry x="1005.5799999999998" y="190" width="70" height="50" as="geometry" />
        </mxCell>
        <mxCell id="aftLZkoXdmzMpvK5F9YH-18" value="" style="endArrow=none;html=1;rounded=0;" parent="1" source="aftLZkoXdmzMpvK5F9YH-17" target="aftLZkoXdmzMpvK5F9YH-2" edge="1">
          <mxGeometry width="50" height="50" relative="1" as="geometry">
            <mxPoint x="1180" y="204.99999999999994" as="sourcePoint" />
            <mxPoint x="1080" y="462" as="targetPoint" />
          </mxGeometry>
        </mxCell>
        <mxCell id="aftLZkoXdmzMpvK5F9YH-21" value="&lt;span style=&quot;font-size: 8px;&quot;&gt;Совершение видео- и аудиозвонков&lt;/span&gt;" style="ellipse;whiteSpace=wrap;html=1;movable=1;resizable=1;rotatable=1;deletable=1;editable=1;locked=0;connectable=1;" parent="1" vertex="1">
          <mxGeometry x="1130" y="570" width="90" height="60" as="geometry" />
        </mxCell>
        <mxCell id="aftLZkoXdmzMpvK5F9YH-61" value="&amp;lt;&amp;lt;include&amp;gt;&amp;gt;" style="rounded=0;orthogonalLoop=1;jettySize=auto;html=1;dashed=1;endArrow=none;endFill=0;startArrow=classic;startFill=1;" parent="1" source="aftLZkoXdmzMpvK5F9YH-60" target="aftLZkoXdmzMpvK5F9YH-17" edge="1">
          <mxGeometry relative="1" as="geometry">
            <mxPoint x="1162.7164098998342" y="304.4278633667219" as="sourcePoint" />
          </mxGeometry>
        </mxCell>
        <mxCell id="aftLZkoXdmzMpvK5F9YH-29" value="" style="endArrow=none;html=1;rounded=0;" parent="1" source="aftLZkoXdmzMpvK5F9YH-6" target="aftLZkoXdmzMpvK5F9YH-60" edge="1">
          <mxGeometry width="50" height="50" relative="1" as="geometry">
            <mxPoint x="1070" y="-178" as="sourcePoint" />
            <mxPoint x="1106.2036232581722" y="332.6435757586082" as="targetPoint" />
          </mxGeometry>
        </mxCell>
        <mxCell id="aftLZkoXdmzMpvK5F9YH-38" value="&amp;lt;&amp;lt;include&amp;gt;&amp;gt;" style="rounded=0;orthogonalLoop=1;jettySize=auto;html=1;dashed=1;dashPattern=8 8;" parent="1" source="aftLZkoXdmzMpvK5F9YH-42" target="aftLZkoXdmzMpvK5F9YH-44" edge="1">
          <mxGeometry relative="1" as="geometry" />
        </mxCell>
        <mxCell id="aftLZkoXdmzMpvK5F9YH-41" value="&amp;lt;&amp;lt;include&amp;gt;&amp;gt;" style="rounded=0;orthogonalLoop=1;jettySize=auto;html=1;dashed=1;dashPattern=8 8;" parent="1" source="aftLZkoXdmzMpvK5F9YH-42" target="aftLZkoXdmzMpvK5F9YH-50" edge="1">
          <mxGeometry relative="1" as="geometry" />
        </mxCell>
        <mxCell id="aftLZkoXdmzMpvK5F9YH-42" value="&lt;span style=&quot;font-size: 8px;&quot;&gt;Просмотр сообщений с жалобами&lt;br&gt;&lt;/span&gt;" style="ellipse;whiteSpace=wrap;html=1;movable=1;resizable=1;rotatable=1;deletable=1;editable=1;locked=0;connectable=1;" parent="1" vertex="1">
          <mxGeometry x="976.4200000000001" y="670" width="99.16" height="60" as="geometry" />
        </mxCell>
        <mxCell id="aftLZkoXdmzMpvK5F9YH-43" value="" style="endArrow=none;html=1;rounded=0;exitX=0;exitY=0;exitDx=0;exitDy=0;" parent="1" source="aftLZkoXdmzMpvK5F9YH-42" target="aftLZkoXdmzMpvK5F9YH-6" edge="1">
          <mxGeometry width="50" height="50" relative="1" as="geometry">
            <mxPoint x="1130" y="420" as="sourcePoint" />
            <mxPoint x="1180" y="370" as="targetPoint" />
          </mxGeometry>
        </mxCell>
        <mxCell id="aftLZkoXdmzMpvK5F9YH-44" value="&lt;span style=&quot;font-size: 8px;&quot;&gt;Удаление сообщений&lt;/span&gt;" style="ellipse;whiteSpace=wrap;html=1;movable=1;resizable=1;rotatable=1;deletable=1;editable=1;locked=0;connectable=1;" parent="1" vertex="1">
          <mxGeometry x="1149.9999999999998" y="700" width="80" height="53" as="geometry" />
        </mxCell>
        <mxCell id="aftLZkoXdmzMpvK5F9YH-50" value="&lt;span style=&quot;font-size: 8px;&quot;&gt;Блокировка пользователей&lt;/span&gt;" style="ellipse;whiteSpace=wrap;html=1;movable=1;resizable=1;rotatable=1;deletable=1;editable=1;locked=0;connectable=1;" parent="1" vertex="1">
          <mxGeometry x="1119.16" y="783" width="80" height="56.5" as="geometry" />
        </mxCell>
        <mxCell id="aftLZkoXdmzMpvK5F9YH-60" value="&lt;font style=&quot;font-size: 8px;&quot;&gt;Авторизация&lt;/font&gt;" style="ellipse;whiteSpace=wrap;html=1;movable=1;resizable=1;rotatable=1;deletable=1;editable=1;locked=0;connectable=1;" parent="1" vertex="1">
          <mxGeometry x="1099.9999999999998" y="240" width="70" height="50" as="geometry" />
        </mxCell>
        <mxCell id="4HfEvigmBpFpneOejs-F-2" value="" style="endArrow=none;html=1;rounded=0;" edge="1" parent="1" source="aftLZkoXdmzMpvK5F9YH-2" target="aftLZkoXdmzMpvK5F9YH-21">
          <mxGeometry width="50" height="50" relative="1" as="geometry">
            <mxPoint x="938" y="408" as="sourcePoint" />
            <mxPoint x="1021" y="343" as="targetPoint" />
          </mxGeometry>
        </mxCell>
        <mxCell id="4HfEvigmBpFpneOejs-F-3" value="" style="endArrow=none;html=1;rounded=0;" edge="1" parent="1" source="aftLZkoXdmzMpvK5F9YH-6" target="aftLZkoXdmzMpvK5F9YH-21">
          <mxGeometry width="50" height="50" relative="1" as="geometry">
            <mxPoint x="948" y="418" as="sourcePoint" />
            <mxPoint x="1031" y="353" as="targetPoint" />
          </mxGeometry>
        </mxCell>
        <mxCell id="4HfEvigmBpFpneOejs-F-4" value="&lt;span style=&quot;font-size: 8px;&quot;&gt;Отправка сообщений&lt;/span&gt;" style="ellipse;whiteSpace=wrap;html=1;movable=1;resizable=1;rotatable=1;deletable=1;editable=1;locked=0;connectable=1;" vertex="1" parent="1">
          <mxGeometry x="1119.16" y="420" width="90" height="60" as="geometry" />
        </mxCell>
        <mxCell id="4HfEvigmBpFpneOejs-F-5" value="&lt;span style=&quot;font-size: 8px;&quot;&gt;Добавление вложений&lt;/span&gt;" style="ellipse;whiteSpace=wrap;html=1;movable=1;resizable=1;rotatable=1;deletable=1;editable=1;locked=0;connectable=1;" vertex="1" parent="1">
          <mxGeometry x="1199.16" y="500" width="90" height="60" as="geometry" />
        </mxCell>
        <mxCell id="4HfEvigmBpFpneOejs-F-6" value="&amp;lt;&amp;lt;include&amp;gt;&amp;gt;" style="rounded=0;orthogonalLoop=1;jettySize=auto;html=1;dashed=1;dashPattern=8 8;" edge="1" parent="1" source="4HfEvigmBpFpneOejs-F-4" target="4HfEvigmBpFpneOejs-F-5">
          <mxGeometry relative="1" as="geometry">
            <mxPoint x="1096" y="621" as="sourcePoint" />
            <mxPoint x="1149" y="651" as="targetPoint" />
          </mxGeometry>
        </mxCell>
        <mxCell id="4HfEvigmBpFpneOejs-F-7" value="" style="endArrow=none;html=1;rounded=0;" edge="1" parent="1" source="aftLZkoXdmzMpvK5F9YH-6" target="4HfEvigmBpFpneOejs-F-4">
          <mxGeometry width="50" height="50" relative="1" as="geometry">
            <mxPoint x="938" y="276" as="sourcePoint" />
            <mxPoint x="1150" y="505" as="targetPoint" />
          </mxGeometry>
        </mxCell>
        <mxCell id="4HfEvigmBpFpneOejs-F-8" value="" style="endArrow=none;html=1;rounded=0;" edge="1" parent="1" source="aftLZkoXdmzMpvK5F9YH-2" target="4HfEvigmBpFpneOejs-F-4">
          <mxGeometry width="50" height="50" relative="1" as="geometry">
            <mxPoint x="938" y="420" as="sourcePoint" />
            <mxPoint x="1210" y="429" as="targetPoint" />
          </mxGeometry>
        </mxCell>
        <mxCell id="4HfEvigmBpFpneOejs-F-10" value="&lt;span style=&quot;font-size: 8px;&quot;&gt;Просмотр пользователей&lt;/span&gt;" style="ellipse;whiteSpace=wrap;html=1;movable=1;resizable=1;rotatable=1;deletable=1;editable=1;locked=0;connectable=1;" vertex="1" parent="1">
          <mxGeometry x="1106.42" y="310" width="90" height="60" as="geometry" />
        </mxCell>
        <mxCell id="4HfEvigmBpFpneOejs-F-11" value="&lt;span style=&quot;font-size: 8px;&quot;&gt;Добавление контактов&lt;/span&gt;" style="ellipse;whiteSpace=wrap;html=1;movable=1;resizable=1;rotatable=1;deletable=1;editable=1;locked=0;connectable=1;" vertex="1" parent="1">
          <mxGeometry x="1270.0000000000002" y="270" width="90" height="60" as="geometry" />
        </mxCell>
        <mxCell id="4HfEvigmBpFpneOejs-F-12" value="&amp;lt;&amp;lt;include&amp;gt;&amp;gt;" style="rounded=0;orthogonalLoop=1;jettySize=auto;html=1;dashed=1;dashPattern=8 8;" edge="1" parent="1" source="4HfEvigmBpFpneOejs-F-10" target="4HfEvigmBpFpneOejs-F-11">
          <mxGeometry relative="1" as="geometry">
            <mxPoint x="1236" y="561" as="sourcePoint" />
            <mxPoint x="1289" y="591" as="targetPoint" />
          </mxGeometry>
        </mxCell>
        <mxCell id="4HfEvigmBpFpneOejs-F-13" value="" style="endArrow=none;html=1;rounded=0;" edge="1" parent="1" target="4HfEvigmBpFpneOejs-F-10" source="aftLZkoXdmzMpvK5F9YH-6">
          <mxGeometry width="50" height="50" relative="1" as="geometry">
            <mxPoint x="1010" y="388" as="sourcePoint" />
            <mxPoint x="1290" y="445" as="targetPoint" />
          </mxGeometry>
        </mxCell>
        <mxCell id="4HfEvigmBpFpneOejs-F-14" value="" style="endArrow=none;html=1;rounded=0;" edge="1" parent="1" target="4HfEvigmBpFpneOejs-F-10" source="aftLZkoXdmzMpvK5F9YH-2">
          <mxGeometry width="50" height="50" relative="1" as="geometry">
            <mxPoint x="1053" y="190" as="sourcePoint" />
            <mxPoint x="1350" y="369" as="targetPoint" />
          </mxGeometry>
        </mxCell>
        <mxCell id="4HfEvigmBpFpneOejs-F-17" value="База данных" style="shape=umlActor;verticalLabelPosition=top;verticalAlign=bottom;html=1;outlineConnect=0;movable=1;resizable=1;rotatable=1;deletable=1;editable=1;locked=0;connectable=1;labelPosition=center;align=center;" vertex="1" parent="1">
          <mxGeometry x="1520" y="220" width="30" height="60" as="geometry" />
        </mxCell>
        <mxCell id="4HfEvigmBpFpneOejs-F-18" value="&lt;br&gt;&lt;br&gt;&amp;lt;&amp;lt;service&amp;gt;&amp;gt;&lt;br&gt;Сервис уведомлений" style="shape=umlActor;verticalLabelPosition=top;verticalAlign=bottom;html=1;outlineConnect=0;movable=1;resizable=1;rotatable=1;deletable=1;editable=1;locked=0;connectable=1;labelPosition=center;align=center;" vertex="1" parent="1">
          <mxGeometry x="1530" y="460" width="30" height="60" as="geometry" />
        </mxCell>
        <mxCell id="4HfEvigmBpFpneOejs-F-19" value="" style="endArrow=none;html=1;rounded=0;" edge="1" parent="1" source="4HfEvigmBpFpneOejs-F-18" target="4HfEvigmBpFpneOejs-F-11">
          <mxGeometry width="50" height="50" relative="1" as="geometry">
            <mxPoint x="880" y="457" as="sourcePoint" />
            <mxPoint x="1172" y="390" as="targetPoint" />
          </mxGeometry>
        </mxCell>
        <mxCell id="4HfEvigmBpFpneOejs-F-20" value="" style="endArrow=none;html=1;rounded=0;entryX=0.919;entryY=0.277;entryDx=0;entryDy=0;entryPerimeter=0;" edge="1" parent="1" source="4HfEvigmBpFpneOejs-F-18" target="aftLZkoXdmzMpvK5F9YH-21">
          <mxGeometry width="50" height="50" relative="1" as="geometry">
            <mxPoint x="1530" y="469" as="sourcePoint" />
            <mxPoint x="1389" y="454" as="targetPoint" />
          </mxGeometry>
        </mxCell>
        <mxCell id="4HfEvigmBpFpneOejs-F-21" value="" style="endArrow=none;html=1;rounded=0;" edge="1" parent="1" source="4HfEvigmBpFpneOejs-F-18" target="4HfEvigmBpFpneOejs-F-4">
          <mxGeometry width="50" height="50" relative="1" as="geometry">
            <mxPoint x="1540" y="479" as="sourcePoint" />
            <mxPoint x="1399" y="464" as="targetPoint" />
          </mxGeometry>
        </mxCell>
        <mxCell id="4HfEvigmBpFpneOejs-F-22" value="" style="endArrow=none;html=1;rounded=0;" edge="1" parent="1" source="4HfEvigmBpFpneOejs-F-17" target="aftLZkoXdmzMpvK5F9YH-17">
          <mxGeometry width="50" height="50" relative="1" as="geometry">
            <mxPoint x="1530" y="467" as="sourcePoint" />
            <mxPoint x="1387" y="439" as="targetPoint" />
          </mxGeometry>
        </mxCell>
        <mxCell id="4HfEvigmBpFpneOejs-F-23" value="" style="endArrow=none;html=1;rounded=0;" edge="1" parent="1" source="4HfEvigmBpFpneOejs-F-17" target="4HfEvigmBpFpneOejs-F-4">
          <mxGeometry width="50" height="50" relative="1" as="geometry">
            <mxPoint x="1530" y="259" as="sourcePoint" />
            <mxPoint x="1089" y="227" as="targetPoint" />
          </mxGeometry>
        </mxCell>
        <mxCell id="4HfEvigmBpFpneOejs-F-24" value="" style="endArrow=none;html=1;rounded=0;" edge="1" parent="1" source="4HfEvigmBpFpneOejs-F-17" target="4HfEvigmBpFpneOejs-F-11">
          <mxGeometry width="50" height="50" relative="1" as="geometry">
            <mxPoint x="1540" y="269" as="sourcePoint" />
            <mxPoint x="1099" y="237" as="targetPoint" />
          </mxGeometry>
        </mxCell>
        <mxCell id="4HfEvigmBpFpneOejs-F-25" value="" style="endArrow=none;html=1;rounded=0;" edge="1" parent="1" source="4HfEvigmBpFpneOejs-F-18" target="aftLZkoXdmzMpvK5F9YH-44">
          <mxGeometry width="50" height="50" relative="1" as="geometry">
            <mxPoint x="1540" y="504" as="sourcePoint" />
            <mxPoint x="1223" y="597" as="targetPoint" />
          </mxGeometry>
        </mxCell>
        <mxCell id="4HfEvigmBpFpneOejs-F-26" value="" style="endArrow=none;html=1;rounded=0;" edge="1" parent="1" source="4HfEvigmBpFpneOejs-F-18" target="aftLZkoXdmzMpvK5F9YH-50">
          <mxGeometry width="50" height="50" relative="1" as="geometry">
            <mxPoint x="1550" y="514" as="sourcePoint" />
            <mxPoint x="1233" y="607" as="targetPoint" />
          </mxGeometry>
        </mxCell>
        <mxCell id="4HfEvigmBpFpneOejs-F-27" value="" style="endArrow=none;html=1;rounded=0;" edge="1" parent="1" source="4HfEvigmBpFpneOejs-F-17" target="4HfEvigmBpFpneOejs-F-5">
          <mxGeometry width="50" height="50" relative="1" as="geometry">
            <mxPoint x="1530" y="268" as="sourcePoint" />
            <mxPoint x="1209" y="441" as="targetPoint" />
          </mxGeometry>
        </mxCell>
      </root>
    </mxGraphModel>
  </diagram>
</mxfile>
